<svg width="37" height="20" viewBox="0 0 37 20" fill="none" xmlns="http://www.w3.org/2000/svg">
<g clip-path="url(#clip0_31_3)">
<path d="M35.9883 0.195656C35.8654 0.217394 33.0615 2.97826 27.1502 8.89855L18.5 17.5725L9.91484 8.97102C5.1959 4.24638 1.26465 0.340582 1.17793 0.297104C0.541992 -0.0289822 -0.202344 0.637684 0.0650385 1.28986C0.115624 1.39855 4.19141 5.53623 9.12715 10.4855C15.7611 17.1304 18.1531 19.4855 18.2977 19.5073C18.4133 19.529 18.5867 19.529 18.6951 19.5145C18.8469 19.4855 21.2389 17.1304 27.909 10.442C35.8437 2.49276 36.9277 1.38406 36.9639 1.14493C37.0723 0.56522 36.5881 0.0942059 35.9883 0.195656Z" fill="#F1F1F1"/>
</g>
<defs>
<clipPath id="clip0_31_3">
<rect width="37" height="20" fill="white"/>
</clipPath>
</defs>
</svg>
